<?xml version="1.0" encoding="UTF-8" standalone="no"?>
<svg
  width="48"
  height="48"
  viewBox="0 0 12.7 12.7"
  version="1.1"
  xmlns="http://www.w3.org/2000/svg"
  xmlns:svg="http://www.w3.org/2000/svg">

  <defs />

  <style>
    /* 默认浅色主题 */
    .light { display: inline; }
    .dark { display: none; }

    /* 当系统是深色模式时 */
    @media (prefers-color-scheme: dark) {
    .dark { display: inline; }
    .light { display: none; }
    }
  </style>

  <!-- 浅色图标 -->
  <g class="light">
    <g>
      <g transform="matrix(-0.41334666,0.71593742,-0.71593742,-0.41334666,24.508725,4.7686411)">
        <rect
          style="fill:#000000;fill-opacity:1;stroke:#000000;stroke-width:1.06668;stroke-linecap:round;stroke-linejoin:round;stroke-dasharray:none;stroke-opacity:1;paint-order:normal"
          width="0.20330764"
          height="3.9333208"
          x="-19.417904"
          y="-11.841941"
          transform="matrix(0,-1,-1,0,0,0)" />
        <rect
          style="fill:#000000;fill-opacity:1;stroke:#000000;stroke-width:1.15133;stroke-linecap:round;stroke-linejoin:round;stroke-dasharray:none;stroke-opacity:1;paint-order:normal"
          width="0.11869221"
          height="7.8486676"
          x="-15.775598"
          y="-13.716"
          transform="matrix(0,-1,-1,0,-1.9462446e-7,-4.4770154e-8)" />
        <rect
          style="fill:#000000;fill-opacity:1;stroke:#000000;stroke-width:1.17962;stroke-linecap:round;stroke-linejoin:round;stroke-dasharray:none;stroke-opacity:1;paint-order:normal"
          width="0.090380825"
          height="10.820375"
          x="-22.379017"
          y="5.2658215"
          transform="matrix(-0.8660254,-0.5,-0.5,0.8660254,0,0)" />
      </g>
    </g>
  </g>

  <!-- 深色图标 -->
  <g class="dark">
    <g>
      <g transform="matrix(-0.41334666,0.71593742,-0.71593742,-0.41334666,24.508725,4.7686411)">
        <rect
          style="fill:#ffffff;fill-opacity:1;stroke:#ffffff;stroke-width:1.06668;stroke-linecap:round;stroke-linejoin:round;stroke-dasharray:none;stroke-opacity:1;paint-order:normal"
          width="0.20330764"
          height="3.9333208"
          x="-19.417904"
          y="-11.841941"
          transform="matrix(0,-1,-1,0,0,0)" />
        <rect
          style="fill:#ffffff;fill-opacity:1;stroke:#ffffff;stroke-width:1.15133;stroke-linecap:round;stroke-linejoin:round;stroke-dasharray:none;stroke-opacity:1;paint-order:normal"
          width="0.11869221"
          height="7.8486676"
          x="-15.775598"
          y="-13.716"
          transform="matrix(0,-1,-1,0,-1.9462446e-7,-4.4770154e-8)" />
        <rect
          style="fill:#ffffff;fill-opacity:1;stroke:#ffffff;stroke-width:1.17962;stroke-linecap:round;stroke-linejoin:round;stroke-dasharray:none;stroke-opacity:1;paint-order:normal"
          width="0.090380825"
          height="10.820375"
          x="-22.379017"
          y="5.2658215"
          transform="matrix(-0.8660254,-0.5,-0.5,0.8660254,0,0)" />
      </g>
    </g>
  </g>

</svg>
